# xmcd CD database file
#
# Track frame offsets:
#	150
#	14533
#	31495
#	47750
#	67482
#	88504
#	105498
#	124737
#	144525
#	166675
#	186049
#	206468
#	227221
#
# Disc length: 3240 seconds
#
# Revision: 0
# Processed by: cddbd v1.5PL3 Copyright (c) Steve Scherf et al.
# Submitted via: CDex 1.50
#
DISCID=b20ca60d
DTITLE=Jessica Simpson - IRRESISTIBLE
DYEAR=1900
DGENRE=R&B
TTITLE0=IRRESISTIBLE
TTITLE1=A LITTLE BIT
TTITLE2=FOREVER IN YOUR EYES
TTITLE3=THERE YOU WERE
TTITLE4=WHAT'S IT GONNA BE
TTITLE5=WHEN YOU TOLD ME YOU LOVED ME
TTITLE6=HOT LIKE FIRE
TTITLE7=IMAGINATION
TTITLE8=TO FALL IN LOVE AGAIN
TTITLE9=FOR YOUR LOVE
TTITLE10=I NEVER
TTITLE11=HIS EYE IS ON THE SPARROW
TTITLE12=IRRESISTIBLE(HEX HECTOR CLUB MIX)
EXTD=
EXTT0=
EXTT1=
EXTT2=
EXTT3=
EXTT4=
EXTT5=
EXTT6=
EXTT7=
EXTT8=
EXTT9=
EXTT10=
EXTT11=
EXTT12=
PLAYORDER=
